<svg width="70" height="70" viewBox="0 0 70 70" fill="none" xmlns="http://www.w3.org/2000/svg">
<g id="maya 1">
<g id="Group">
<path id="Vector" d="M46.941 5.4209H64.878L40.9053 54.3705C40.9053 54.3705 36.8663 41.4025 35.1305 36.7747" fill="#B479D9"/>
<g id="Group_2">
<path id="Vector_2" d="M51.3657 65.9463H64.878V5.4209C64.8667 37.0506 52.8406 65.9463 51.3657 65.9463Z" fill="#B479D9"/>
</g>
<path id="Vector_3" d="M40.7833 55.7806H29.6308L5 6.83106C9.36797 6.21653 18.0926 5.38879 22.4151 5L40.7833 55.7806Z" fill="#B479D9"/>
<path id="Vector_4" d="M19.4058 35.0438C15.7072 51.1973 5.11061 66.4227 5.12196 66.4102C17.3977 66.4102 20.0411 64.4411 20.0411 63.4002C20.0411 62.8233 20.0411 44.8011 20.0411 36.2729C19.8256 35.8716 19.6213 35.4577 19.4058 35.0438Z" fill="#B479D9"/>
<path id="Vector_5" d="M5.12195 5.4209V66.4103C11.8384 54.1447 15.7526 46.1181 19.2129 34.6803C10.6812 18 5.12195 5.4209 5.12195 5.4209Z" fill="#B479D9"/>
<path id="Vector_6" d="M50.4354 63.5508L51.3657 65.9462V34.166L50.4354 35.8842" fill="#B479D9"/>
<path id="Vector_7" d="M51.3203 34.2288V65.8459L51.3544 65.9463C52.3187 65.9463 64.8667 31.733 64.8667 5.4209C64.8667 5.4209 57.2086 23.0794 51.3203 34.2288Z" fill="#B479D9"/>
</g>
</g>
</svg>
