<svg width="36" height="36" viewBox="0 0 36 36" fill="none" xmlns="http://www.w3.org/2000/svg">
<g id="Icon--github " clip-path="url(#clip0_262_25)">
<path id="Vector" d="M23.5547 35.0859C24.5391 35.0859 24.3984 36.2812 24.3984 36.2812H11.6016C11.6016 36.2812 11.4609 35.0859 12.4453 35.0859C13.3594 35.0859 13.5703 34.664 13.5703 34.2422L13.5 30.7265C8.50781 31.8515 7.45313 28.7578 7.45313 28.7578C6.60938 26.6484 5.48438 26.1562 5.48438 26.1562C3.79688 25.0312 5.55469 25.0312 5.55469 25.0312C7.38281 25.1718 8.36719 26.8593 8.36719 26.8593C9.91406 29.6015 12.5156 28.8281 13.5703 28.4062C13.7109 27.2109 14.2031 26.4375 14.6953 25.9453C10.6875 25.5234 6.53906 23.9765 6.53906 17.0859C6.53906 15.1172 7.24219 13.5 8.36719 12.2343C8.15625 11.8125 7.59375 9.98434 8.57813 7.52341C8.57813 7.52341 10.0547 7.03122 13.5 9.35153C16.4531 8.50778 19.5469 8.50778 22.5 9.35153C25.9453 7.03122 27.4219 7.52341 27.4219 7.52341C28.4062 9.98434 27.8438 11.8125 27.6328 12.2343C28.7578 13.5 29.4609 15.1172 29.4609 17.0859C29.4609 23.9765 25.2422 25.5234 21.2344 25.9453C21.9375 26.5078 22.5 27.6328 22.5 29.3203L22.4297 34.2422C22.4297 34.664 22.6406 35.0859 23.5547 35.0859Z" fill="white"/>
</g>
<defs>
<clipPath id="clip0_262_25">
<rect width="36" height="36" fill="white"/>
</clipPath>
</defs>
</svg>
