<svg width="174" height="174" viewBox="0 0 174 174" fill="none" xmlns="http://www.w3.org/2000/svg">
<g id="instagram-logo-fill-svgrepo-com 1">
<path id="Vector" d="M108.75 87C108.75 91.3017 107.474 95.5069 105.084 99.0836C102.695 102.66 99.2977 105.448 95.3234 107.094C91.3491 108.741 86.9759 109.171 82.7568 108.332C78.5377 107.493 74.6622 105.421 71.6204 102.38C68.5786 99.3378 66.5071 95.4623 65.6679 91.2432C64.8287 87.0241 65.2594 82.6509 66.9056 78.6766C68.5518 74.7023 71.3396 71.3055 74.9164 68.9155C78.4931 66.5256 82.6983 65.25 87 65.25C92.7664 65.2566 98.2948 67.5502 102.372 71.6277C106.45 75.7052 108.743 81.2336 108.75 87ZM154.969 57.0938V116.906C154.957 126.998 150.944 136.672 143.808 143.808C136.672 150.944 126.998 154.957 116.906 154.969H57.0938C47.0025 154.957 37.3277 150.944 30.1921 143.808C23.0565 136.672 19.0427 126.998 19.0312 116.906V57.0938C19.0427 47.0025 23.0565 37.3277 30.1921 30.1921C37.3277 23.0565 47.0025 19.0427 57.0938 19.0312H116.906C126.998 19.0427 136.672 23.0565 143.808 30.1921C150.944 37.3277 154.957 47.0025 154.969 57.0938ZM119.625 87C119.625 80.5474 117.712 74.2397 114.127 68.8745C110.542 63.5094 105.446 59.3277 99.485 56.8584C93.5236 54.3891 86.9638 53.743 80.6352 55.0019C74.3065 56.2607 68.4933 59.368 63.9306 63.9306C59.368 68.4933 56.2607 74.3065 55.0019 80.6352C53.743 86.9638 54.3891 93.5236 56.8584 99.485C59.3277 105.446 63.5094 110.542 68.8745 114.127C74.2397 117.712 80.5474 119.625 87 119.625C95.6497 119.615 103.942 116.175 110.059 110.059C116.175 103.942 119.615 95.6497 119.625 87ZM130.5 51.6562C130.5 50.0431 130.022 48.4662 129.125 47.1249C128.229 45.7836 126.955 44.7382 125.465 44.1209C123.975 43.5035 122.335 43.342 120.753 43.6567C119.17 43.9714 117.717 44.7482 116.576 45.8889C115.436 47.0296 114.659 48.4829 114.344 50.065C114.03 51.6472 114.191 53.2872 114.808 54.7775C115.426 56.2679 116.471 57.5417 117.812 58.4379C119.154 59.3341 120.731 59.8125 122.344 59.8125C124.507 59.8125 126.581 58.9532 128.111 57.4236C129.641 55.894 130.5 53.8194 130.5 51.6562Z" fill="white"/>
</g>
</svg>
