<svg width="144" height="144" viewBox="0 0 144 144" fill="none" xmlns="http://www.w3.org/2000/svg">
<g id="Icon--behance" clip-path="url(#clip0_380_323)">
<rect width="144" height="144" fill="#31C8D1"/>
<g id="Group">
<g id="Group_2">
<path id="Vector" d="M55.0221 77.6425C53.2754 76.8378 50.8199 76.4354 47.6694 76.3988H31.8711V96.0244H47.4179C50.6141 96.0244 53.0879 95.6037 54.8758 94.7303C58.0903 93.1299 59.709 90.0708 59.709 85.5394C59.709 81.7122 58.1498 79.0738 55.0221 77.6425Z" fill="white"/>
<path id="Vector_2" d="M55.2233 62.393C57.2124 61.1812 58.2001 59.0275 58.2001 55.9228C58.2001 52.4979 56.8923 50.2253 54.2539 49.1325C51.9859 48.378 49.0823 47.9847 45.566 47.9847H31.8711V64.222H47.4408C50.637 64.2174 53.2297 63.6093 55.2233 62.393Z" fill="white"/>
<path id="Vector_3" d="M102.956 63.7465C99.4126 63.7465 96.669 64.7707 94.7211 66.7689C92.7686 68.7763 91.5523 71.4924 91.0493 74.931H114.804C114.534 71.2775 113.313 68.4974 111.109 66.6089C108.928 64.7021 106.207 63.7465 102.956 63.7465Z" fill="white"/>
<path id="Vector_4" d="M0 0V144H144V0H0ZM88.0178 38.2543H117.653V45.6162H88.0178V38.2543ZM71.9451 98.329C70.5459 100.624 68.8129 102.554 66.7324 104.118C64.3866 105.919 61.6156 107.154 58.4286 107.813C55.2323 108.48 51.7663 108.809 48.0442 108.809H14.8884V35.2089H50.4402C59.3934 35.3415 65.7493 37.9388 69.4988 43.0464C71.7531 46.1786 72.8642 49.9235 72.8642 54.2766C72.8642 58.7898 71.7348 62.3838 69.4576 65.1137C68.2002 66.6546 66.33 68.0447 63.8562 69.3022C67.6012 70.6831 70.4407 72.8276 72.3384 75.809C74.2497 78.7629 75.2054 82.3706 75.2054 86.582C75.21 90.9534 74.14 94.8721 71.9451 98.329ZM129.102 84.0305H90.711C90.9259 89.3301 92.7504 93.0339 96.2256 95.1602C98.3153 96.4908 100.853 97.1355 103.821 97.1355C106.962 97.1355 109.495 96.3445 111.471 94.7258C112.541 93.8661 113.478 92.6452 114.296 91.1088H128.366C128.001 94.2411 126.309 97.4053 123.259 100.638C118.549 105.764 111.932 108.338 103.437 108.338C96.4131 108.338 90.2309 106.157 84.8627 101.845C79.5128 97.5196 76.8149 90.4824 76.8149 80.7291C76.8149 71.5885 79.2293 64.5833 84.0716 59.7089C88.9323 54.8345 95.2059 52.4019 102.934 52.4019C107.52 52.4019 111.644 53.2204 115.334 54.8574C119.006 56.5126 122.042 59.1099 124.425 62.6673C126.597 65.8087 127.978 69.4348 128.636 73.5821C129.011 75.9736 129.171 79.467 129.102 84.0305Z" fill="white"/>
</g>
</g>
</g>
<defs>
<clipPath id="clip0_380_323">
<rect width="144" height="144" fill="#31C8D1"/>
</clipPath>
</defs>
</svg>
