<svg width="120" height="120" viewBox="0 0 120 120" fill="none" xmlns="http://www.w3.org/2000/svg">
<g id="lightroom 2">
<path id="Vector" d="M71.3692 53.5243C71.4008 51.5626 71.3236 49.6006 71.1379 47.6472C71.1068 47.4791 71.1403 47.3055 71.232 47.1605C71.3238 47.0156 71.467 46.9097 71.6336 46.8636C78.8627 44.1278 86.5317 42.701 94.2729 42.6517C94.7686 42.6517 95 42.6517 95 43.2721V52.0224C95 52.5122 94.8347 52.6101 94.2729 52.6101C90.3197 52.3897 86.3566 52.8088 82.5401 53.8508V92.0845C82.5401 92.5742 82.3418 92.8028 81.78 92.8028H72.1294C71.6336 92.8028 71.3692 92.6069 71.3692 92.0845V53.5243ZM25.8924 92.9334C25.1653 92.9334 25 92.6395 25 92.0192V26.7836C25 26.2939 25.1653 26 25.7271 26H35.4438C35.9396 26 36.0718 26.1959 36.0718 26.751V82.9097H61.4212C61.9169 82.9097 62.0822 82.9097 61.983 83.628L60.4296 92.2804C60.3899 92.4907 60.2741 92.6795 60.1038 92.8116C59.9335 92.9438 59.7205 93.0103 59.5042 92.9987H25.8924V92.9334Z" fill="#B479D9"/>
</g>
</svg>
