<svg width="120" height="120" viewBox="0 0 120 120" fill="none" xmlns="http://www.w3.org/2000/svg">
<g id="Icon--photoshop">
<g clip-path="url(#clip0_52_132)">
<g id="Group">
<g id="Group_2">
<path id="Vector" d="M40.7007 34.2229C37.6645 34.2229 35.6037 34.5183 34.532 34.8205V54.3362C35.8097 54.6248 37.3691 54.7209 39.526 54.7209C47.4738 54.7209 52.3785 50.7024 52.3785 43.9292C52.3716 37.8568 48.1539 34.2229 40.7007 34.2229Z" fill="#CBF1F9"/>
<path id="Vector_2" d="M112.657 0.0135498H7.35016C3.2904 0.0135498 0 3.29708 0 7.3431V112.643C0 116.696 3.2904 119.986 7.35016 119.986H112.657C116.71 119.986 120 116.696 120 112.643V7.34997C120 3.29708 116.71 0.0135498 112.657 0.0135498ZM61.0957 59.2407C56.0055 64.0493 48.4424 66.2062 39.6291 66.2062C37.6576 66.2062 35.899 66.1101 34.5252 65.9109V89.555H19.7081V24.324C24.3174 23.5478 30.7883 22.957 39.9176 22.957C49.1293 22.957 55.7101 24.7156 60.1133 28.2533C64.3517 31.5918 67.1887 37.0872 67.1887 43.5581C67.1887 50.029 65.0249 55.5038 61.0957 59.2407ZM83.4278 90.5305C77.1355 90.5305 71.5508 89.1703 67.9169 87.1988L70.5616 76.5102C73.3093 78.1657 79.004 80.1303 83.4278 80.1303C87.9272 80.1303 89.7956 78.5641 89.7956 76.1049C89.7956 73.6594 88.3256 72.4848 82.7409 70.6163C72.8353 67.2847 69.0022 61.8854 69.0984 56.1976C69.0984 47.2813 76.7508 40.4944 88.621 40.4944C94.2126 40.4944 99.2135 41.779 102.154 43.2421L99.5088 53.5461C97.3519 52.3646 93.2372 50.8052 89.1087 50.8052C85.4886 50.8052 83.4347 52.2753 83.4347 54.7276C83.4347 56.9807 85.2825 58.1554 91.1695 60.2231C100.292 63.3555 104.125 67.9716 104.214 75.0196C104.214 83.9565 97.1389 90.5305 83.4278 90.5305Z" fill="#CBF1F9"/>
</g>
</g>
</g>
</g>
<defs>
<clipPath id="clip0_52_132">
<path d="M0 20C0 8.95431 8.95431 0 20 0H100C111.046 0 120 8.95431 120 20V100C120 111.046 111.046 120 100 120H20C8.95431 120 0 111.046 0 100V20Z" fill="white"/>
</clipPath>
</defs>
</svg>
