<svg width="84" height="84" viewBox="0 0 84 84" fill="none" xmlns="http://www.w3.org/2000/svg">
<g id="visual-studio 1">
<path id="Vector" d="M75.444 13.6057L60.6121 6.36224C60.0626 6.13719 59.4771 6.01448 58.8841 6.00007H58.5961C57.6605 5.99475 56.7494 6.30029 56.0041 6.86928L55.5001 7.30388L27.1322 33.344L14.7842 24.1086C14.228 23.6805 13.5399 23.4626 12.8402 23.4929C12.1548 23.4851 11.4853 23.7011 10.9322 24.1086L6.97225 27.7303C6.66177 28.0065 6.41419 28.3469 6.24644 28.7281C6.07869 29.1094 5.99472 29.5226 6.00026 29.9396C5.99877 30.3612 6.0844 30.7785 6.25173 31.165C6.41906 31.5516 6.66442 31.8989 6.97225 32.185L17.7722 41.9998L6.97225 51.8509C6.66807 52.1356 6.42546 52.4803 6.25957 52.8635C6.09367 53.2467 6.00806 53.6602 6.00806 54.0782C6.00806 54.4962 6.09367 54.9097 6.25957 55.2929C6.42546 55.6762 6.66807 56.0209 6.97225 56.3056L10.9322 59.9273C11.5294 60.4527 12.299 60.7367 13.0922 60.7241C13.7015 60.678 14.2866 60.4651 14.7842 60.1084L27.1322 50.6557L55.5001 76.6958C56.2259 77.4482 57.1976 77.9112 58.2361 77.9996H58.8481C59.4633 78.0088 60.0706 77.8592 60.6121 77.565L75.444 70.3216C76.1945 69.9602 76.8307 69.3965 77.2819 68.6932C77.7331 67.9899 77.9817 67.1746 78 66.3377V17.6982C77.9976 16.8437 77.7567 16.0071 77.3048 15.2835C76.8529 14.56 76.2082 13.9786 75.444 13.6057ZM60.0001 58.4062L38.4001 41.9998L60.0001 25.5935V58.4062Z" fill="#B479D9"/>
</g>
</svg>
