<svg width="36" height="36" viewBox="0 0 36 36" fill="none" xmlns="http://www.w3.org/2000/svg">
<g id="Icon--whatsapp " clip-path="url(#clip0_435_219)">
<path id="Vector" fill-rule="evenodd" clip-rule="evenodd" d="M17.9948 0C8.07227 0 2.04705e-05 8.07375 2.04705e-05 18C-0.00571676 21.7913 1.19465 25.4862 3.42752 28.5503L1.18502 35.238L8.10302 33.027C11.0384 34.9727 14.4836 36.0071 18.0053 36C27.9278 36 36 27.9255 36 18C36 8.0745 27.9285 0 18.0053 0H17.9948ZM12.9698 9.1425C12.6203 8.307 12.3563 8.2755 11.8275 8.25375C11.6268 8.24103 11.4257 8.23428 11.2245 8.2335C10.536 8.2335 9.81677 8.4345 9.38327 8.8785C8.85452 9.4185 7.54277 10.677 7.54277 13.2593C7.54277 15.8415 9.42527 18.339 9.67952 18.6885C9.94427 19.0372 13.3508 24.4125 18.6398 26.6033C22.776 28.3178 24.0038 28.1588 24.945 27.9578C26.3205 27.6615 28.0448 26.6452 28.4783 25.4182C28.9125 24.1905 28.9125 23.1427 28.7858 22.9207C28.6583 22.6988 28.3088 22.572 27.7808 22.3073C27.2513 22.0425 24.6803 20.7728 24.1935 20.6033C23.718 20.4233 23.2635 20.487 22.9035 20.9948C22.3958 21.7043 21.8985 22.4235 21.4965 22.857C21.1793 23.196 20.6603 23.2388 20.2268 23.058C19.6448 22.815 18.0158 22.2435 16.0058 20.4555C14.4503 19.0688 13.3928 17.3445 13.086 16.8255C12.7785 16.2967 13.0545 15.99 13.2975 15.7042C13.5623 15.3757 13.8158 15.1432 14.0805 14.8365C14.3445 14.529 14.493 14.3707 14.6625 14.0115C14.8425 13.662 14.715 13.302 14.5875 13.0365C14.4615 12.7725 13.4033 10.1903 12.9698 9.14325V9.1425Z" fill="#CBF1F9"/>
</g>
<defs>
<clipPath id="clip0_435_219">
<rect width="36" height="36" fill="white"/>
</clipPath>
</defs>
</svg>
