<svg width="120" height="120" viewBox="0 0 120 120" fill="none" xmlns="http://www.w3.org/2000/svg">
<g id="Icon--indesing">
<path d="M0 20C0 8.95431 8.95431 0 20 0H100C111.046 0 120 8.95431 120 20V100C120 111.046 111.046 120 100 120H20C8.95431 120 0 111.046 0 100V20Z" fill="#CBF1F9"/>
<path id="Vector" d="M85.44 87C85.44 87.33 85.44 87.42 84.99 87.6C80.605 89.6917 75.8083 90.7781 70.95 90.78C58.95 90.78 50.52 83.46 50.52 68.52C50.52 55.74 59.01 45.75 72.54 45.75H75.39V31.35C75.39 31.2068 75.4469 31.0694 75.5482 30.9681C75.6494 30.8669 75.7868 30.81 75.93 30.81H84.63C85.05 30.81 85.17 30.96 85.17 31.26V81.66C85.1407 83.444 85.2309 85.228 85.44 87ZM75.39 54.54C74.3759 54.1525 73.2952 53.969 72.21 54C65.28 54 60.45 59.34 60.45 68.19C60.45 78.3 65.4 82.35 71.61 82.35C72.8967 82.3925 74.1797 82.1888 75.39 81.75V54.54ZM34.56 30C34.56 29.4 34.71 29.1 35.19 29.1H43.65C44.07 29.1 44.31 29.34 44.31 30V89.07C44.31 89.67 44.31 89.97 43.65 89.97H35.31C34.77 89.97 34.62 89.58 34.62 88.98V30H34.56Z" fill="#B479D9"/>
</g>
</svg>
