<svg width="70" height="70" viewBox="0 0 70 70" fill="none" xmlns="http://www.w3.org/2000/svg">
<g id="figma (1) 1">
<path id="Vector" d="M46.6667 46.658C53.1068 46.658 58.3275 41.4372 58.3275 34.9971C58.3275 28.557 53.1068 23.3363 46.6667 23.3363C40.2266 23.3363 35.0058 28.557 35.0058 34.9971C35.0058 41.4372 40.2266 46.658 46.6667 46.658Z" fill="#B479D9"/>
<path id="Vector_2" d="M11.6667 58.3392C11.6667 64.7908 16.8904 70 23.3304 70C29.7704 70 34.9913 64.7763 34.9913 58.3392V23.3363H46.6667L46.6696 23.3392C53.1125 23.3392 58.3333 18.1125 58.3333 11.6754C58.3333 5.23833 53.1096 0 46.6696 0H23.3304C16.8875 0 11.6667 5.22375 11.6667 11.6608C11.6667 18.0979 16.8904 23.3217 23.3304 23.3217C16.8875 23.3392 11.6667 28.56 11.6667 35C11.6667 41.44 16.8904 46.6608 23.3304 46.6608C16.8875 46.6608 11.6667 51.8846 11.6667 58.3392Z" fill="#B479D9"/>
</g>
</svg>
