<svg width="20" height="20" viewBox="0 0 20 20" fill="none" xmlns="http://www.w3.org/2000/svg">
<g id="Icon--location">
<path id="Vector" d="M10 17.7709C9.80556 17.7709 9.61111 17.7361 9.41667 17.6667C9.22222 17.5972 9.04861 17.4931 8.89584 17.3542C7.99306 16.5209 7.19445 15.7084 6.5 14.9167C5.80556 14.125 5.2257 13.3577 4.76042 12.6146C4.29514 11.8715 3.94097 11.1563 3.69792 10.4688C3.45486 9.78127 3.33334 9.12502 3.33334 8.50002C3.33334 6.41669 4.00347 4.75697 5.34375 3.52085C6.68403 2.28474 8.23611 1.66669 10 1.66669C11.7639 1.66669 13.316 2.28474 14.6563 3.52085C15.9965 4.75697 16.6667 6.41669 16.6667 8.50002C16.6667 9.12502 16.5451 9.78127 16.3021 10.4688C16.059 11.1563 15.7049 11.8715 15.2396 12.6146C14.7743 13.3577 14.1944 14.125 13.5 14.9167C12.8056 15.7084 12.0069 16.5209 11.1042 17.3542C10.9514 17.4931 10.7778 17.5972 10.5833 17.6667C10.3889 17.7361 10.1944 17.7709 10 17.7709ZM10 10C10.4583 10 10.8507 9.83683 11.1771 9.51044C11.5035 9.18405 11.6667 8.79169 11.6667 8.33335C11.6667 7.87502 11.5035 7.48266 11.1771 7.15627C10.8507 6.82988 10.4583 6.66669 10 6.66669C9.54167 6.66669 9.14931 6.82988 8.82292 7.15627C8.49653 7.48266 8.33334 7.87502 8.33334 8.33335C8.33334 8.79169 8.49653 9.18405 8.82292 9.51044C9.14931 9.83683 9.54167 10 10 10Z" fill="#B479D9"/>
</g>
</svg>
