<svg width="120" height="120" viewBox="0 0 120 120" fill="none" xmlns="http://www.w3.org/2000/svg">
<g id="Icon--illustrator">
<g clip-path="url(#clip0_52_122)">
<g id="Layer_2_1_">
<g id="Surfaces">
<g id="Drawing_Surface">
<g id="Outline_no_shadow">
<path id="Vector" d="M21.25 0H98.75C110.5 0 120 9.74359 120 21.7949V98.2051C120 110.256 110.5 120 98.75 120H21.25C9.5 120 0 110.256 0 98.2051V21.7949C0 9.74359 9.5 0 21.25 0Z" fill="#CBF1F9"/>
</g>
</g>
</g>
<g id="Outlined_Mnemonics_Logos">
<g id="Ai">
<path id="Vector_2" d="M58.15 71.9999H39.55L35.75 84.0512C35.65 84.5128 35.25 84.8205 34.8 84.7692H25.4C24.85 84.7692 24.7 84.4615 24.85 83.8461L40.95 36.3076C41.1 35.7948 41.25 35.2307 41.45 34.6153C41.65 33.5384 41.75 32.4102 41.75 31.282C41.7 31.0256 41.9 30.7692 42.15 30.7179C42.2 30.7179 42.25 30.7179 42.3 30.7179H55.1C55.5 30.7179 55.7 30.8717 55.75 31.1282L74 83.9487C74.15 84.5128 74 84.7692 73.5 84.7692H63.05C62.7 84.8205 62.35 84.564 62.25 84.2051L58.15 71.9999ZM42.45 61.5897H55.15C54.85 60.5128 54.45 59.2307 54 57.8974C53.55 56.5128 53.1 55.0256 52.65 53.4871C52.15 51.8974 51.7 50.3589 51.2 48.7692C50.7 47.1794 50.25 45.6923 49.85 44.2051C49.45 42.7692 49.1 41.4358 48.75 40.2051H48.65C48.2 42.4102 47.65 44.6153 46.95 46.8205C46.2 49.282 45.45 51.8461 44.65 54.4102C43.95 57.0256 43.2 59.4358 42.45 61.5897Z" fill="#B479D9"/>
<path id="Vector_3" d="M84.9 39.4872C83.25 39.5384 81.65 38.8718 80.45 37.6923C79.3 36.4102 78.7 34.7179 78.75 32.9743C78.7 31.2307 79.35 29.5897 80.55 28.4102C81.75 27.2307 83.35 26.6154 85 26.6154C86.95 26.6154 88.45 27.2307 89.55 28.4102C90.65 29.641 91.25 31.282 91.2 32.9743C91.25 34.7179 90.65 36.4102 89.45 37.6923C88.3 38.923 86.6 39.5897 84.9 39.4872ZM79.3 84V44.5128C79.3 44 79.5 43.7948 79.95 43.7948H89.85C90.3 43.7948 90.5 44.0513 90.5 44.5128V84C90.5 84.5641 90.3 84.8205 89.85 84.8205H80.05C79.55 84.8205 79.3 84.5128 79.3 84Z" fill="#B479D9"/>
</g>
</g>
</g>
</g>
</g>
<defs>
<clipPath id="clip0_52_122">
<path d="M0 20C0 8.95431 8.95431 0 20 0H100C111.046 0 120 8.95431 120 20V100C120 111.046 111.046 120 100 120H20C8.95431 120 0 111.046 0 100V20Z" fill="white"/>
</clipPath>
</defs>
</svg>
