<svg width="176" height="157" viewBox="0 0 176 157" fill="none" xmlns="http://www.w3.org/2000/svg">
<g id="Icon--email">
<path id="Vector" d="M16.1333 139.556C11.6967 139.556 7.89861 138.168 4.73917 135.392C1.57972 132.616 0 129.28 0 125.382V40.3403C0 36.4426 1.57972 33.1059 4.73917 30.3302C7.89861 27.5545 11.6967 26.1667 16.1333 26.1667H145.2C149.637 26.1667 153.435 27.5545 156.594 30.3302C159.754 33.1059 161.333 36.4426 161.333 40.3403V125.382C161.333 129.28 159.754 132.616 156.594 135.392C153.435 138.168 149.637 139.556 145.2 139.556H16.1333ZM80.6667 88.7077C81.3389 88.7077 82.0447 88.6192 82.7842 88.442C83.5236 88.2648 84.2294 87.9991 84.9017 87.6447L141.973 56.2856C143.049 55.695 143.856 54.9568 144.393 54.071C144.931 53.1851 145.2 52.2107 145.2 51.1477C145.2 48.7854 144.057 47.0137 141.772 45.8326C139.486 44.6514 137.133 44.7105 134.713 46.0097L80.6667 75.7743L26.62 46.0097C24.2 44.7105 21.8472 44.681 19.5617 45.9212C17.2761 47.1613 16.1333 48.9035 16.1333 51.1477C16.1333 52.3288 16.4022 53.3623 16.94 54.2482C17.4778 55.134 18.2844 55.8132 19.36 56.2856L76.4317 87.6447C77.1039 87.9991 77.8097 88.2648 78.5492 88.442C79.2886 88.6192 79.9944 88.7077 80.6667 88.7077Z" fill="black"/>
</g>
</svg>
