<?xml version="1.0" encoding="UTF-8"?>
<svg id="Capa_1" data-name="Capa 1" xmlns="http://www.w3.org/2000/svg" viewBox="0 0 443.49 153.04">
  <defs>
    <style>
      .cls-1 {
        fill: #B479D9FF;
      }

      .cls-2 {
        fill: #ffffff;
      }
    </style>
  </defs>
  <path class="cls-1" d="M122.05,57.73c2.94-10.43,5.68-20.12,5.68-20.12.38-1.43.8-2.74,1.27-3.92.46-1.18,1.12-2.19,1.96-3.04.72-.72,1.65-1.29,2.82-1.71,1.16-.42,2.27-.47,3.65-.25,1.43.23,3.31,1.25,4.02,2.41.72,1.16,1.08,2.5,1.08,4.02,0,.59-.09,1.3-.28,2.12s-.52,1.97-.98,3.45l-15.47,48.66c-.68,2.07-2.87,7.5-3.65,8.99-.78,1.5-5.45,9.55-7.45,10.3-.9.34-4.36-1.23-4.31-3,.02-.8,1.78-9.97,2.47-13.87.25-1.22,1.63-7.23,2.09-8.79,0,0,3.7-13.12,7.13-25.24Z"/>
  <path class="cls-1" d="M158.98,107.39c-.46,1.56-.94,2.94-1.42,4.14-.49,1.2-1.13,2.2-1.93,3.01-.76.76-1.71,1.35-2.85,1.77s-2.49.63-4.05.63c-1.35,0-2.7-.2-4.05-.6-1.35-.4-2.57-1-3.67-1.8-1.1-.8-1.98-1.77-2.66-2.91-.67-1.14-1.01-2.43-1.01-3.86,0-.8.09-1.6.28-2.4.19-.8.54-1.96,1.04-3.48l19.71-57.96c.46-1.35.92-2.56,1.36-3.64s.91-2.05,1.39-2.91c.48-.86.98-1.65,1.49-2.37.51-.72,1.08-1.39,1.71-2.02,1.39-1.35,3.13-2.39,5.22-3.13,2.09-.74,4.71-1.11,7.88-1.11s5.79.37,7.88,1.11c2.09.74,3.83,1.78,5.22,3.13.63.63,1.21,1.31,1.74,2.02.53.72,1.02,1.51,1.49,2.37.46.86.92,1.83,1.36,2.91s.9,2.29,1.36,3.64l19.77,57.58c.51,1.52.86,2.68,1.04,3.48.19.8.29,1.56.29,2.28,0,1.6-.37,3.02-1.11,4.24-.74,1.22-1.69,2.24-2.85,3.04-1.16.8-2.45,1.4-3.86,1.8-1.41.4-2.79.6-4.14.6-1.6,0-3.01-.23-4.21-.7s-2.23-1.14-3.07-2.02c-.8-.76-1.46-1.71-1.96-2.85s-.99-2.47-1.46-3.99l-3.11-9.55h-29.86l-2.97,9.55ZM186.81,81.39l-6.72-21.07c-.55-1.73-1.04-3.35-1.46-4.87s-.8-2.85-1.14-3.99c-.42-1.35-.76-2.62-1.01-3.8h-.25c-.29,1.18-.61,2.45-.95,3.8-.34,1.14-.71,2.47-1.11,3.99s-.85,3.14-1.36,4.87l-6.25,21.07h20.25Z"/>
  <path class="cls-1" d="M271.62,98.85c2.32,0,4.15.72,5.48,2.15,1.33,1.43,2,3.63,2,6.58s-.66,5.2-1.96,6.61c-1.31,1.41-3.14,2.12-5.5,2.12h-37.14c-3.12,0-5.55-.86-7.28-2.59-1.73-1.73-2.59-4.13-2.59-7.21V38.36c0-3.12.9-5.51,2.71-7.18,1.81-1.67,4.56-2.5,8.26-2.5s6.57.83,8.36,2.5c1.79,1.67,2.68,4.06,2.68,7.18v60.49h24.98Z"/>
  <path class="cls-1" d="M307.23,99.67h26.88c2.2,0,3.94.69,5.23,2.08,1.29,1.39,1.93,3.47,1.93,6.24s-.64,4.91-1.93,6.27c-1.29,1.37-3.03,2.05-5.22,2.05h-39.04c-3.12,0-5.55-.86-7.28-2.59-1.73-1.73-2.59-4.13-2.59-7.21V38.93c0-3.08.86-5.48,2.59-7.21,1.73-1.73,4.15-2.59,7.28-2.59h38.72c2.24,0,3.99.68,5.28,2.05,1.29,1.37,1.93,3.46,1.93,6.27s-.64,4.85-1.93,6.24c-1.29,1.39-3.05,2.08-5.28,2.08h-26.51v18.03h22.46c2.07,0,3.74.7,5.03,2.09,1.29,1.39,1.93,3.44,1.93,6.14s-.65,4.75-1.93,6.14c-1.29,1.39-2.97,2.09-5.04,2.09h-22.51v19.42Z"/>
  <path class="cls-1" d="M350.8,43.42c0-4.98,1.23-8.68,3.7-11.1,2.47-2.43,6.27-3.64,11.42-3.64,2.4,0,4.44.24,6.11.73,1.67.49,3.15,1.21,4.46,2.18,1.31.97,2.48,2.16,3.51,3.57,1.03,1.41,2.08,3.05,3.13,4.9l22.21,37.71c.93,1.6,1.76,3.16,2.5,4.68.74,1.52,1.38,2.89,1.93,4.11.63,1.39,1.22,2.72,1.77,3.99l.32-.13c-.21-1.48-.4-3.06-.57-4.75-.13-1.43-.28-3.08-.44-4.94-.17-1.86-.28-3.82-.32-5.88l-1.14-37.65c-.13-2.66.66-4.75,2.37-6.26s4.21-2.28,7.5-2.28,5.62.75,7.24,2.25c1.62,1.5,2.44,3.6,2.44,6.3v64.73c0,5.02-1.23,8.74-3.7,11.17-2.47,2.43-6.27,3.64-11.42,3.64-2.36,0-4.39-.24-6.07-.73-1.69-.48-3.19-1.21-4.49-2.18-1.31-.97-2.48-2.16-3.51-3.57-1.04-1.41-2.08-3.05-3.13-4.9l-22.21-37.71c-.89-1.6-1.72-3.16-2.5-4.68-.78-1.52-1.42-2.89-1.93-4.11-.63-1.39-1.22-2.72-1.77-3.99l-.25.13c.17,1.48.34,3.06.51,4.75.17,1.43.33,3.09.47,4.97.15,1.88.26,3.83.35,5.85l1.08,37.65c.13,2.66-.66,4.75-2.34,6.26-1.69,1.52-4.18,2.28-7.47,2.28s-5.69-.75-7.31-2.25c-1.62-1.5-2.44-3.6-2.44-6.3V43.42Z"/>
  <path class="cls-1" d="M128.33,77.68S93.98,17.39,58.83,10.9c0,0-42.81-12.33-45.26,29.22,0,0-2.87,41.58,44.11,52.27,0,0-28.26,16.68-7.58,45.97,0,0,24.47,26.06,56.06-11.39,0,0,19.07-23.05,22.17-49.28Z"/>
  <path class="cls-2" d="M74.89,52.73l-11.73,4.34c-.18.07-.32.2-.38.38l-4.34,11.73c-.21.56-1,.56-1.21,0l-4.34-11.73c-.07-.18-.2-.32-.38-.38l-11.73-4.34c-.56-.21-.56-1,0-1.21l11.73-4.34c.18-.07.32-.2.38-.38l4.34-11.73c.21-.56,1-.56,1.21,0l4.34,11.73c.07.18.2.32.38.38l11.73,4.34c.56.21.56,1,0,1.21Z"/>
  <path class="cls-2" d="M83.86,117.46l-6.23,2.3c-.18.07-.32.2-.38.38l-2.3,6.23c-.21.56-1,.56-1.21,0l-2.3-6.23c-.07-.18-.2-.32-.38-.38l-6.23-2.3c-.56-.21-.56-1,0-1.21l6.23-2.3c.18-.07.32-.2.38-.38l2.3-6.23c.21-.56,1-.56,1.21,0l2.3,6.23c.07.18.2.32.38.38l6.23,2.3c.56.21.56,1,0,1.21Z"/>
</svg>