<svg width="26" height="30" viewBox="0 0 26 30" fill="none" xmlns="http://www.w3.org/2000/svg">
<path id="Vector" d="M19.4481 28.2054C20.4325 28.2054 20.2919 29.4007 20.2919 29.4007H7.49501C7.49501 29.4007 7.35439 28.2054 8.33876 28.2054C9.25282 28.2054 9.46376 27.7835 9.46376 27.3617L9.39345 23.846C4.40126 24.971 3.34657 21.8773 3.34657 21.8773C2.50282 19.7679 1.37782 19.2757 1.37782 19.2757C-0.309675 18.1507 1.44814 18.1507 1.44814 18.1507C3.27626 18.2914 4.26064 19.9789 4.26064 19.9789C5.80751 22.721 8.40907 21.9476 9.46376 21.5257C9.60439 20.3304 10.0966 19.557 10.5888 19.0648C6.58095 18.6429 2.43251 17.096 2.43251 10.2054C2.43251 8.23666 3.13564 6.61948 4.26064 5.35385C4.0497 4.93198 3.4872 3.10385 4.47157 0.642914C4.47157 0.642914 5.94814 0.150726 9.39345 2.47104C12.3466 1.62729 15.4403 1.62729 18.3934 2.47104C21.8388 0.150726 23.3153 0.642914 23.3153 0.642914C24.2997 3.10385 23.7372 4.93198 23.5263 5.35385C24.6513 6.61948 25.3544 8.23666 25.3544 10.2054C25.3544 17.096 21.1356 18.6429 17.1278 19.0648C17.8309 19.6273 18.3934 20.7523 18.3934 22.4398L18.3231 27.3617C18.3231 27.7835 18.5341 28.2054 19.4481 28.2054Z" fill="white"/>
</svg>
